HIERARCHY
ROOT Hips
{
	OFFSET 0.000000 0.000000 0.000000
	CHANNELS 6 Xposition Yposition Zposition Zrotation Yrotation Xrotation 
	JOINT LHipJoint
	{
		OFFSET 0.000000 0.000000 0.000000
		CHANNELS 3 Zrotation Yrotation Xrotation
		JOINT LeftUpLeg
		{
			OFFSET 1.363060 -1.794630 0.839290
			CHANNELS 3 Zrotation Yrotation Xrotation
			JOINT LeftLeg
			{
				OFFSET 2.448110 -6.726130 0.000000
				CHANNELS 3 Zrotation Yrotation Xrotation
				JOINT LeftFoot
				{
					OFFSET 2.562200 -7.039590 0.000000
					CHANNELS 3 Zrotation Yrotation Xrotation
					JOINT LeftToeBase
					{
						OFFSET 0.157640 -0.433110 2.322550
						CHANNELS 3 Zrotation Yrotation Xrotation
						End Site
						{
							OFFSET 0.000000 0.000000 0.000000
						}
					}
				}
			}
		}
	}
	JOINT RHipJoint
	{
		OFFSET 0.000000 0.000000 0.000000
		CHANNELS 3 Zrotation Yrotation Xrotation
		JOINT RightUpLeg
		{
			OFFSET -1.305520 -1.794630 0.839290
			CHANNELS 3 Zrotation Yrotation Xrotation
			JOINT RightLeg
			{
				OFFSET -2.542530 -6.985550 0.000000
				CHANNELS 3 Zrotation Yrotation Xrotation
				JOINT RightFoot
				{
					OFFSET -2.568260 -7.056230 0.000000
					CHANNELS 3 Zrotation Yrotation Xrotation
					JOINT RightToeBase
					{
						OFFSET -0.164730 -0.452590 2.363150
						CHANNELS 3 Zrotation Yrotation Xrotation
						End Site
						{
							OFFSET 0.000000 0.000000 0.000000
						}
					}
				}
			}
		}
	}
}
MOTION
Frames: 25
Frame Time: 0.008333
-11.563316 17.764877 -1.140394 -165.520386 85.896562 -144.096204 -13.221419 6.207257 2.916850 -3.963844 14.532815 -2.208463 -1.942159 0.124531 -1.215589 0.284517 -7.121652 27.245698 -3.875200 0.000000 -65.306200 7.689573 -1.723986 6.880656 8.290218 9.639946 -41.393353 2.191457 -0.706728 27.248337 -1.072799 -2.544764 -8.472930 -0.326500 -0.000000 -38.371900
-11.304681 17.814817 -1.127898 -161.112768 85.947247 -139.833746 -13.546615 6.312688 2.395861 -2.967460 17.708830 -1.789653 -2.033283 0.149263 -1.539889 0.381024 -8.171105 29.035914 -4.672500 0.000000 -62.842500 7.360796 -1.964813 7.354213 8.886888 10.611872 -40.736183 2.568549 -0.327570 23.141568 -0.869673 -2.027297 -7.054391 -0.457400 -0.000000 -39.655900
-11.049261 17.853435 -1.111622 -157.419844 85.978087 -136.325143 -13.785942 6.399471 1.884661 -1.981558 20.597085 -1.324250 -2.115217 0.168562 -1.495129 0.468302 -8.593494 30.144089 -5.067200 0.000000 -59.898800 7.111300 -2.156192 7.768867 9.415905 11.416484 -40.074358 2.897856 0.032390 19.401194 -0.684554 -1.664137 -5.571274 -0.582200 -0.000000 -40.952400
-10.796932 17.880839 -1.091874 -154.263973 86.000073 -133.385881 -13.947368 6.470378 1.415244 -0.998432 23.054903 -0.785218 -2.167165 0.188710 -1.120424 0.539612 -8.333952 30.604109 -4.998700 -0.000000 -56.619000 6.929303 -2.302125 8.103720 9.931478 12.041672 -39.439019 3.171076 0.351115 16.138228 -0.525524 -1.458727 -4.053988 -0.706800 -0.000000 -42.191400
-10.547690 17.897319 -1.069201 -151.464757 86.021665 -130.824110 -14.037002 6.525066 1.024114 -0.049040 24.903892 -0.139334 -2.164610 0.213591 -0.495400 0.596348 -7.353426 30.506468 -4.455300 0.000000 -53.194500 6.799642 -2.411719 8.342152 10.476944 12.488144 -38.848938 3.388043 0.609695 13.420800 -0.395302 -1.398775 -2.516641 -0.837700 0.000000 -43.402000
-10.301359 17.903202 -1.044076 -148.915022 86.046739 -128.518940 -14.060235 6.561841 0.742357 0.806039 25.994873 0.619025 -2.087417 0.245170 0.314602 0.646793 -5.690581 29.960811 -3.496600 -0.000000 -49.826300 6.708232 -2.494672 8.475427 11.077101 12.765428 -38.313666 3.552737 0.796066 11.282929 -0.294430 -1.464540 -0.980704 -0.979100 0.000000 -44.567800
-10.057848 17.898878 -1.016873 -146.586631 86.078674 -126.433286 -14.024218 6.578421 0.584942 1.497571 26.261750 1.457892 -1.926970 0.284619 1.295179 0.704386 -3.481536 29.070966 -2.245299 -0.000000 -46.675000 6.643819 -2.559393 8.504289 11.734801 12.889474 -37.832796 3.670152 0.905883 9.725446 -0.221485 -1.630929 0.528227 -1.132401 0.000000 -45.649600
-9.816919 17.884607 -0.987810 -144.557813 86.128960 -124.640614 -13.934335 6.575543 0.556758 1.946164 25.676431 2.350443 -1.684206 0.332832 2.432498 0.786631 -0.870898 27.963369 -0.824400 0.000000 -43.926200 6.600529 -2.610159 8.432771 12.428662 12.871876 -37.400377 3.743876 0.940147 8.734184 -0.172077 -1.857027 1.968403 -1.291100 -0.000000 -46.566501
-9.578429 17.860617 -0.957107 -142.943614 86.213824 -123.261379 -13.797820 6.555291 0.644402 2.100095 24.309417 3.264580 -1.375379 0.390991 3.747567 0.907650 1.950456 26.757239 0.639201 -0.000000 -41.735300 6.576564 -2.648963 8.270038 13.124613 12.720061 -37.003808 3.776721 0.904242 8.283045 -0.139739 -2.089810 3.280612 -1.440500 0.000000 -47.223800
-9.342279 17.826815 -0.925057 -141.773964 86.341079 -122.342544 -13.629082 6.517999 0.807075 1.985088 22.402838 4.137414 -1.036766 0.460741 5.336200 1.064970 4.680622 25.519560 1.983300 -0.000000 -40.091300 6.570972 -2.678342 8.035955 13.789202 12.454708 -36.622009 3.771490 0.807755 8.330924 -0.119685 -2.285098 4.392131 -1.562900 0.000000 -47.524101
-9.108424 17.782998 -0.892111 -141.035409 86.520134 -121.889373 -13.440018 6.468582 1.006559 1.641975 20.193906 4.940078 -0.703939 0.543792 7.232029 1.244933 7.098766 24.334639 3.106400 -0.000000 -39.037300 6.585368 -2.697657 7.746110 14.392398 12.090709 -36.232392 3.731561 0.661452 8.839616 -0.106104 -2.390734 5.209607 -1.634101 -0.000000 -47.377700
-8.876773 17.728699 -0.858912 -140.568926 86.746003 -121.761326 -13.245397 6.412042 1.198764 1.161487 17.976016 5.630217 -0.411027 0.641973 9.469194 1.420290 8.986630 23.241477 3.917700 0.000000 -38.511800 6.619100 -2.707369 7.420117 14.920658 11.657932 -35.810505 3.662325 0.477953 9.762852 -0.096656 -2.376109 5.635917 -1.635700 0.000000 -46.718700
-8.647325 17.663514 -0.826155 -140.096035 87.002041 -121.692019 -13.057112 6.353144 1.348439 0.645156 15.996690 6.176271 -0.177188 0.756295 12.036180 1.564368 10.225426 22.258346 4.380299 -0.000000 -38.459599 6.669419 -2.708582 7.076216 15.377388 11.192363 -35.336890 3.571803 0.269893 11.052122 -0.091757 -2.229937 5.577859 -1.559300 0.000000 -45.506200
-8.419989 17.587052 -0.794536 -139.187232 87.255898 -121.252791 -12.884421 6.292487 1.428267 0.208300 14.456602 6.536607 -0.006647 0.885923 14.918657 1.657120 10.773108 21.352906 4.491300 -0.000000 -38.703300 6.731052 -2.705515 6.735938 15.783415 10.742543 -34.803690 3.470559 0.048826 12.654895 -0.096128 -1.971509 4.963842 -1.412000 0.000000 -43.724400
-8.194595 17.499433 -0.764646 -137.344937 87.475566 -119.936683 -12.726113 6.227511 1.430630 -0.078580 13.418350 6.707847 0.113911 1.027196 18.046732 1.698745 10.752481 20.505782 4.330300 0.000000 -39.194099 6.802204 -2.702049 6.413156 16.166890 10.340025 -34.216635 3.371022 -0.177541 14.526844 -0.113894 -1.620850 3.746566 -1.207400 -0.000000 -41.370500
-7.970963 17.401052 -0.736929 -133.925508 87.616815 -117.079008 -12.576607 6.151288 1.353124 -0.145815 12.909776 6.662203 0.200649 1.175028 21.394281 1.697233 10.312734 19.651478 3.978300 -0.000000 -39.730100 6.884568 -2.703016 6.126842 16.563204 10.027144 -33.600499 3.285463 -0.404643 16.623927 -0.152686 -1.222495 1.921246 -0.969800 0.000000 -38.461400
-7.748800 17.293053 -0.711719 -128.291508 87.646247 -112.018824 -12.419642 6.061412 1.208061 0.015760 12.857883 6.410307 0.270638 1.325237 24.895685 1.674423 9.700885 18.769179 3.559700 0.000000 -40.331300 6.990411 -2.705941 5.884184 17.004443 9.818036 -32.981971 3.224487 -0.631111 18.909805 -0.215793 -0.800315 -0.477731 -0.718099 0.000000 -35.007500
-7.527886 17.177035 -0.689217 -119.954438 87.533152 -104.238114 -12.243821 5.966654 1.010168 0.400024 13.192025 5.941252 0.328878 1.479390 28.518657 1.650439 9.128534 17.819676 3.167000 0.000000 -40.914700 7.132644 -2.699552 5.692409 17.517672 9.734924 -32.390954 3.193003 -0.854099 21.347076 -0.306381 -0.384612 -3.364724 -0.470800 -0.000000 -31.076800
-7.307999 17.055138 -0.669624 -109.104950 87.262756 -93.899194 -12.059894 5.889437 0.779291 0.964902 13.829331 5.247598 0.371277 1.646255 32.223405 1.643680 8.783125 16.784196 2.871400 -0.000000 -41.471200 7.306050 -2.665906 5.550576 18.114534 9.790607 -31.845398 3.188413 -1.065980 23.894506 -0.424565 0.007053 -6.610826 -0.239400 0.000000 -26.781000
-7.088992 16.929983 -0.653137 -97.136341 86.837510 -82.369815 -11.914033 5.846047 0.535414 1.651008 14.691674 4.318586 0.396348 1.834189 35.978420 1.665311 8.786487 15.645535 2.706101 -0.000000 -41.946101 7.467304 -2.600114 5.455332 18.784940 9.990249 -31.355048 3.201961 -1.257350 26.500215 -0.570703 0.358682 -10.056103 -0.029000 0.000000 -22.323100
-6.870788 16.804507 -0.639886 -86.166594 86.279988 -71.747535 -11.856198 5.820479 0.295213 2.400124 15.687094 3.147912 0.417970 2.039015 39.761853 1.719240 9.189702 14.389648 2.670100 0.000001 -42.247301 7.559030 -2.525729 5.406996 19.509569 10.322908 -30.931137 3.225912 -1.427153 29.092681 -0.745341 0.650487 -13.524511 0.161500 -0.000000 -18.020699
-6.653380 16.681778 -0.630044 -77.626314 85.626165 -63.451221 -11.898484 5.774176 0.070181 3.173171 16.712957 1.738984 0.456137 2.246930 43.557463 1.804560 9.975878 13.004618 2.733400 -0.000000 -42.247600 7.555023 -2.477670 5.408511 20.283638 10.762315 -30.580086 3.258920 -1.583752 31.589055 -0.945696 0.868415 -16.865749 0.337901 -0.000000 -14.052500
-6.436862 16.564882 -0.623526 -71.726669 84.914006 -57.683627 -12.018251 5.678322 -0.129802 3.934069 17.670872 0.096078 0.520926 2.447422 47.344602 1.918063 11.076454 11.489633 2.848600 -0.000000 -41.838699 7.467199 -2.476806 5.461331 21.107046 11.276946 -30.297718 3.299514 -1.735007 33.898171 -1.160822 1.005767 -19.922212 0.504200 -0.000000 -10.763800
-6.221438 16.456724 -0.620070 -67.974329 84.173381 -53.951430 -12.185819 5.525031 -0.296100 4.643691 18.481640 -1.771374 0.611386 2.638400 51.093459 2.054043 12.385750 9.855991 2.960600 0.000000 -40.950900 7.319989 -2.524845 5.558482 21.973595 11.826976 -30.064426 3.346307 -1.881801 35.945238 -1.374025 1.080774 -22.584764 0.659300 0.000001 -8.295599
-6.007188 16.359749 -0.619501 -65.848308 83.423166 -51.737089 -12.382776 5.316428 -0.421040 5.278755 19.089799 -3.854488 0.723316 2.821273 54.771978 2.203103 13.771155 8.120941 3.015400 0.000000 -39.540300 7.127445 -2.616994 5.691367 22.878787 12.382290 -29.847047 3.400800 -2.018582 37.659958 -1.570621 1.117311 -24.797056 0.799100 0.000000 -6.529800
